<svg width="164" height="34" viewBox="0 0 164 34" fill="none" xmlns="http://www.w3.org/2000/svg">
<path d="M12.016 26.328C12.016 28.504 11.536 30.168 10.576 31.32C9.616 32.44 8.224 33 6.4 33C4.672 33 3.328 32.488 2.368 31.464C1.408 30.408 0.928 28.632 0.928 26.136V5.88C0.928 4.856 1.056 3.976 1.312 3.24C1.6 2.472 2 1.864 2.512 1.416C3.024 0.967998 3.6 0.647998 4.24 0.455998C4.88 0.231997 5.6 0.119997 6.4 0.119997H22.144C24 0.119997 25.376 0.407997 26.272 0.983997C27.2 1.56 27.664 2.6 27.664 4.104C27.664 5.512 27.264 6.504 26.464 7.08C25.696 7.624 24.416 7.896 22.624 7.896H12.016V13.512H20.464C21.328 13.512 22.048 13.576 22.624 13.704C23.232 13.832 23.712 14.056 24.064 14.376C24.448 14.664 24.704 15.032 24.832 15.48C24.992 15.896 25.072 16.44 25.072 17.112C25.072 18.2 24.672 18.984 23.872 19.464C23.072 19.912 21.792 20.136 20.032 20.136H12.016V26.328ZM38.2844 33.288C35.7564 33.288 33.6604 32.264 31.9964 30.216C30.3324 28.136 29.5004 25.304 29.5004 21.72C29.5004 18.072 30.3164 15.176 31.9484 13.032C33.6124 10.856 35.7244 9.768 38.2844 9.768C40.8764 9.768 43.2764 10.68 45.4844 12.504C46.3484 10.904 47.7404 10.104 49.6604 10.104C51.3884 10.104 52.7324 10.488 53.6924 11.256C54.6524 11.992 55.1324 13.368 55.1324 15.384V27.864C55.1324 29.784 54.7324 31.128 53.9324 31.896C53.1324 32.632 51.7244 33 49.7084 33C47.5964 33 46.2044 32.408 45.5324 31.224C43.4844 32.6 41.0684 33.288 38.2844 33.288ZM44.8124 17.112C44.2684 16.184 43.5644 15.72 42.7004 15.72C41.8684 15.72 41.1964 16.328 40.6844 17.544C40.1724 18.76 39.9164 20.152 39.9164 21.72C39.9164 23.192 40.1564 24.504 40.6364 25.656C41.1164 26.808 41.7884 27.384 42.6524 27.384C43.5484 27.384 44.2684 26.952 44.8124 26.088V17.112ZM73.8535 15.048C73.8535 14.312 73.4375 13.944 72.6055 13.944C71.9975 13.944 71.4535 14.28 70.9735 14.952C70.4935 15.624 70.1255 16.472 69.8695 17.496C69.6135 18.488 69.4855 19.528 69.4855 20.616C69.4855 22.216 69.9655 23.512 70.9255 24.504C71.9175 25.496 73.2455 25.992 74.9095 25.992C76.5415 25.992 77.9495 25.8 79.1335 25.416C79.6135 25.288 80.1895 25.048 80.8615 24.696C81.5655 24.344 82.0615 24.168 82.3495 24.168C82.7975 24.168 83.1655 24.248 83.4535 24.408C83.7415 24.568 83.9335 24.76 84.0295 24.984C84.1575 25.208 84.2215 25.448 84.2215 25.704C84.2215 26.152 84.0615 26.696 83.7415 27.336C83.4535 27.976 82.9895 28.648 82.3495 29.352C81.7095 30.056 80.9575 30.712 80.0935 31.32C79.2615 31.896 78.2215 32.376 76.9735 32.76C75.7255 33.144 74.4135 33.336 73.0375 33.336C69.0695 33.336 65.8055 32.28 63.2455 30.168C60.6855 28.024 59.4055 25.096 59.4055 21.384C59.4055 19.016 59.9815 16.952 61.1335 15.192C62.3175 13.4 63.9335 12.056 65.9815 11.16C68.0295 10.232 70.3815 9.768 73.0375 9.768C75.5655 9.768 77.6455 10.072 79.2775 10.68C80.9415 11.256 82.1255 12.04 82.8295 13.032C83.5335 14.024 83.8855 15.208 83.8855 16.584C83.8855 17.192 83.7575 17.816 83.5015 18.456C83.2775 19.096 82.9095 19.736 82.3975 20.376C81.9175 21.016 81.1975 21.544 80.2375 21.96C79.2775 22.344 78.1575 22.536 76.8775 22.536C76.3015 22.536 75.8215 22.504 75.4375 22.44C75.0855 22.376 74.7015 22.248 74.2855 22.056C73.9015 21.832 73.6135 21.48 73.4215 21C73.2295 20.52 73.1335 19.912 73.1335 19.176C73.1335 18.536 73.2455 17.768 73.4695 16.872C73.7255 15.944 73.8535 15.336 73.8535 15.048ZM89.983 22.728V17.064C89.183 17.032 88.543 16.904 88.063 16.68C87.583 16.424 87.231 16.104 87.007 15.72C86.815 15.336 86.719 14.856 86.719 14.28C86.719 12.456 87.823 11.464 90.031 11.304V6.84C90.031 5.624 90.911 4.536 92.671 3.576C94.431 2.584 96.175 2.088 97.903 2.088C98.959 2.088 99.647 2.392 99.967 3C100.287 3.608 100.447 4.52 100.447 5.736L100.495 11.256H101.791C103.551 11.256 104.751 11.496 105.391 11.976C106.063 12.424 106.399 13.256 106.399 14.472C106.399 14.984 106.303 15.416 106.111 15.768C105.919 16.12 105.599 16.392 105.151 16.584C104.735 16.776 104.223 16.92 103.615 17.016C103.007 17.08 102.255 17.112 101.359 17.112H100.495V22.392C100.495 22.904 100.511 23.336 100.543 23.688C100.607 24.008 100.687 24.264 100.783 24.456C100.879 24.648 101.007 24.776 101.167 24.84C101.359 24.904 101.583 24.936 101.839 24.936C102.223 24.936 102.543 24.808 102.799 24.552C103.055 24.264 103.247 23.96 103.375 23.64C103.535 23.288 103.727 22.984 103.951 22.728C104.207 22.44 104.495 22.296 104.815 22.296C105.551 22.296 106.111 22.472 106.495 22.824C106.911 23.176 107.119 23.608 107.119 24.12C107.119 24.984 106.943 25.912 106.591 26.904C106.271 27.896 105.791 28.856 105.151 29.784C104.511 30.712 103.615 31.48 102.463 32.088C101.343 32.696 100.079 33 98.671 33C95.503 33 93.263 32.2 91.951 30.6C90.639 29 89.983 26.376 89.983 22.728ZM126.196 21.624C126.196 19.96 125.988 18.504 125.572 17.256C125.156 15.976 124.548 15.336 123.748 15.336C123.204 15.336 122.724 15.656 122.308 16.296C121.892 16.936 121.588 17.72 121.396 18.648C121.204 19.576 121.108 20.568 121.108 21.624C121.108 23.256 121.332 24.696 121.78 25.944C122.228 27.16 122.868 27.768 123.7 27.768C124.532 27.768 125.156 27.16 125.572 25.944C125.988 24.728 126.196 23.288 126.196 21.624ZM123.7 33.336C121.204 33.336 118.948 32.888 116.932 31.992C114.948 31.096 113.348 29.752 112.132 27.96C110.948 26.168 110.356 24.072 110.356 21.672C110.356 18.024 111.604 15.128 114.1 12.984C116.596 10.84 119.796 9.768 123.7 9.768C127.604 9.768 130.788 10.84 133.252 12.984C135.716 15.128 136.948 18.024 136.948 21.672C136.948 25.288 135.684 28.136 133.156 30.216C130.66 32.296 127.508 33.336 123.7 33.336ZM152.254 9.768C155.23 9.768 157.71 10.376 159.694 11.592C161.678 12.808 162.67 14.136 162.67 15.576C162.67 15.992 162.494 16.376 162.142 16.728C161.79 17.08 161.342 17.256 160.798 17.256C160.318 17.256 159.79 17.096 159.214 16.776C158.638 16.424 158.094 16.056 157.582 15.672C157.07 15.288 156.398 14.936 155.566 14.616C154.734 14.296 153.854 14.136 152.926 14.136C151.678 14.136 151.054 14.52 151.054 15.288C151.054 15.832 151.374 16.264 152.014 16.584C152.654 16.904 153.582 17.24 154.798 17.592C156.046 17.944 156.99 18.28 157.63 18.6C160.03 19.528 161.678 20.536 162.574 21.624C163.47 22.68 163.918 24.088 163.918 25.848C163.918 26.712 163.678 27.576 163.198 28.44C162.718 29.272 161.998 30.072 161.038 30.84C160.078 31.576 158.766 32.184 157.102 32.664C155.47 33.112 153.598 33.336 151.486 33.336C147.358 33.336 144.27 32.392 142.222 30.504C141.23 29.576 140.734 28.616 140.734 27.624C140.734 27.016 140.926 26.536 141.31 26.184C141.726 25.832 142.302 25.656 143.038 25.656C143.774 25.656 144.894 26.024 146.398 26.76C147.902 27.464 149.294 27.816 150.574 27.816C152.334 27.816 153.214 27.384 153.214 26.52C153.214 26.072 152.75 25.72 151.822 25.464C150.894 25.176 149.678 24.84 148.174 24.456C146.67 24.072 145.47 23.592 144.574 23.016C143.166 22.408 142.174 21.656 141.598 20.76C141.054 19.832 140.782 18.712 140.782 17.4C140.782 15.16 141.838 13.336 143.95 11.928C146.094 10.488 148.862 9.768 152.254 9.768Z" fill="white"/>
</svg>
