<svg width="99" height="99" viewBox="0 0 99 99" fill="none" xmlns="http://www.w3.org/2000/svg">
<rect width="99" height="99" rx="49.5" fill="url(#paint0_linear_1533_3)"/>
<path d="M48.016 61.328C48.016 63.504 47.536 65.168 46.576 66.32C45.616 67.44 44.224 68 42.4 68C40.672 68 39.328 67.488 38.368 66.464C37.408 65.408 36.928 63.632 36.928 61.136V40.88C36.928 39.856 37.056 38.976 37.312 38.24C37.6 37.472 38 36.864 38.512 36.416C39.024 35.968 39.6 35.648 40.24 35.456C40.88 35.232 41.6 35.12 42.4 35.12H58.144C60 35.12 61.376 35.408 62.272 35.984C63.2 36.56 63.664 37.6 63.664 39.104C63.664 40.512 63.264 41.504 62.464 42.08C61.696 42.624 60.416 42.896 58.624 42.896H48.016V48.512H56.464C57.328 48.512 58.048 48.576 58.624 48.704C59.232 48.832 59.712 49.056 60.064 49.376C60.448 49.664 60.704 50.032 60.832 50.48C60.992 50.896 61.072 51.44 61.072 52.112C61.072 53.2 60.672 53.984 59.872 54.464C59.072 54.912 57.792 55.136 56.032 55.136H48.016V61.328Z" fill="white"/>
<defs>
<linearGradient id="paint0_linear_1533_3" x1="49.5" y1="0" x2="49.5" y2="99" gradientUnits="userSpaceOnUse">
<stop stop-color="#F49C4B"/>
<stop offset="1" stop-color="#FF5858"/>
</linearGradient>
</defs>
</svg>
